<mxfile host="app.diagrams.net" agent="Mozilla/5.0 (Windows NT 10.0; Win64; x64; rv:142.0) Gecko/20100101 Firefox/142.0" version="28.2.0">
  <diagram name="Страница — 1" id="ilKboftQ8bxpJKOHlQ3G">
    <mxGraphModel dx="1181" dy="635" grid="1" gridSize="10" guides="1" tooltips="1" connect="1" arrows="1" fold="1" page="1" pageScale="1" pageWidth="827" pageHeight="1169" math="0" shadow="0">
      <root>
        <mxCell id="0" />
        <mxCell id="1" parent="0" />
        <mxCell id="FLRKtxYcnIDCZC7Q2tlj-1" value="Order States" style="rounded=0;whiteSpace=wrap;html=1;" vertex="1" parent="1">
          <mxGeometry x="320" y="280" width="160" height="30" as="geometry" />
        </mxCell>
        <mxCell id="FLRKtxYcnIDCZC7Q2tlj-7" style="edgeStyle=orthogonalEdgeStyle;rounded=0;orthogonalLoop=1;jettySize=auto;html=1;entryX=0.5;entryY=0;entryDx=0;entryDy=0;" edge="1" parent="1" source="FLRKtxYcnIDCZC7Q2tlj-2" target="FLRKtxYcnIDCZC7Q2tlj-6">
          <mxGeometry relative="1" as="geometry" />
        </mxCell>
        <mxCell id="FLRKtxYcnIDCZC7Q2tlj-8" style="edgeStyle=orthogonalEdgeStyle;rounded=0;orthogonalLoop=1;jettySize=auto;html=1;entryX=0.5;entryY=0;entryDx=0;entryDy=0;" edge="1" parent="1" source="FLRKtxYcnIDCZC7Q2tlj-2" target="FLRKtxYcnIDCZC7Q2tlj-3">
          <mxGeometry relative="1" as="geometry" />
        </mxCell>
        <mxCell id="FLRKtxYcnIDCZC7Q2tlj-2" value="Created" style="rounded=0;whiteSpace=wrap;html=1;" vertex="1" parent="1">
          <mxGeometry x="340" y="350" width="120" height="30" as="geometry" />
        </mxCell>
        <mxCell id="FLRKtxYcnIDCZC7Q2tlj-10" style="edgeStyle=orthogonalEdgeStyle;rounded=0;orthogonalLoop=1;jettySize=auto;html=1;entryX=0.5;entryY=0;entryDx=0;entryDy=0;" edge="1" parent="1" source="FLRKtxYcnIDCZC7Q2tlj-3" target="FLRKtxYcnIDCZC7Q2tlj-9">
          <mxGeometry relative="1" as="geometry" />
        </mxCell>
        <mxCell id="FLRKtxYcnIDCZC7Q2tlj-12" style="edgeStyle=orthogonalEdgeStyle;rounded=0;orthogonalLoop=1;jettySize=auto;html=1;entryX=0.5;entryY=0;entryDx=0;entryDy=0;" edge="1" parent="1" source="FLRKtxYcnIDCZC7Q2tlj-3" target="FLRKtxYcnIDCZC7Q2tlj-11">
          <mxGeometry relative="1" as="geometry" />
        </mxCell>
        <mxCell id="FLRKtxYcnIDCZC7Q2tlj-3" value="Paid" style="rounded=0;whiteSpace=wrap;html=1;" vertex="1" parent="1">
          <mxGeometry x="340" y="400" width="120" height="30" as="geometry" />
        </mxCell>
        <mxCell id="FLRKtxYcnIDCZC7Q2tlj-6" value="Cancelled" style="rounded=0;whiteSpace=wrap;html=1;" vertex="1" parent="1">
          <mxGeometry x="200" y="450" width="120" height="30" as="geometry" />
        </mxCell>
        <mxCell id="FLRKtxYcnIDCZC7Q2tlj-14" style="edgeStyle=orthogonalEdgeStyle;rounded=0;orthogonalLoop=1;jettySize=auto;html=1;entryX=0.5;entryY=0;entryDx=0;entryDy=0;" edge="1" parent="1" source="FLRKtxYcnIDCZC7Q2tlj-9" target="FLRKtxYcnIDCZC7Q2tlj-13">
          <mxGeometry relative="1" as="geometry" />
        </mxCell>
        <mxCell id="FLRKtxYcnIDCZC7Q2tlj-9" value="Shipped" style="rounded=0;whiteSpace=wrap;html=1;" vertex="1" parent="1">
          <mxGeometry x="340" y="450" width="120" height="30" as="geometry" />
        </mxCell>
        <mxCell id="FLRKtxYcnIDCZC7Q2tlj-11" value="Refunded" style="rounded=0;whiteSpace=wrap;html=1;" vertex="1" parent="1">
          <mxGeometry x="480" y="500" width="120" height="30" as="geometry" />
        </mxCell>
        <mxCell id="FLRKtxYcnIDCZC7Q2tlj-16" style="edgeStyle=orthogonalEdgeStyle;rounded=0;orthogonalLoop=1;jettySize=auto;html=1;entryX=0.5;entryY=0;entryDx=0;entryDy=0;" edge="1" parent="1" source="FLRKtxYcnIDCZC7Q2tlj-13" target="FLRKtxYcnIDCZC7Q2tlj-15">
          <mxGeometry relative="1" as="geometry" />
        </mxCell>
        <mxCell id="FLRKtxYcnIDCZC7Q2tlj-13" value="Delivered" style="rounded=0;whiteSpace=wrap;html=1;" vertex="1" parent="1">
          <mxGeometry x="340" y="500" width="120" height="30" as="geometry" />
        </mxCell>
        <mxCell id="FLRKtxYcnIDCZC7Q2tlj-18" style="edgeStyle=orthogonalEdgeStyle;rounded=0;orthogonalLoop=1;jettySize=auto;html=1;entryX=0.5;entryY=0;entryDx=0;entryDy=0;" edge="1" parent="1" source="FLRKtxYcnIDCZC7Q2tlj-15" target="FLRKtxYcnIDCZC7Q2tlj-17">
          <mxGeometry relative="1" as="geometry" />
        </mxCell>
        <mxCell id="FLRKtxYcnIDCZC7Q2tlj-15" value="Delivered" style="rounded=0;whiteSpace=wrap;html=1;" vertex="1" parent="1">
          <mxGeometry x="340" y="550" width="120" height="30" as="geometry" />
        </mxCell>
        <mxCell id="FLRKtxYcnIDCZC7Q2tlj-20" style="edgeStyle=orthogonalEdgeStyle;rounded=0;orthogonalLoop=1;jettySize=auto;html=1;entryX=0.5;entryY=1;entryDx=0;entryDy=0;" edge="1" parent="1" source="FLRKtxYcnIDCZC7Q2tlj-17" target="FLRKtxYcnIDCZC7Q2tlj-11">
          <mxGeometry relative="1" as="geometry" />
        </mxCell>
        <mxCell id="FLRKtxYcnIDCZC7Q2tlj-17" value="Returned" style="rounded=0;whiteSpace=wrap;html=1;" vertex="1" parent="1">
          <mxGeometry x="340" y="600" width="120" height="30" as="geometry" />
        </mxCell>
      </root>
    </mxGraphModel>
  </diagram>
</mxfile>
